<?xml version="1.0" encoding="UTF-8" standalone="no"?>
<!DOCTYPE svg PUBLIC "-//W3C//DTD SVG 1.1//EN"
 "http://www.w3.org/Graphics/SVG/1.1/DTD/svg11.dtd">
<!-- Generated by graphviz version 12.2.0 (20241103.1931)
 -->
<!-- Title: CPX Flowchart Pages: 1 -->
<svg width="1412pt" height="508pt"
 viewBox="0.00 0.00 1412.40 508.05" xmlns="http://www.w3.org/2000/svg" xmlns:xlink="http://www.w3.org/1999/xlink">
<g id="graph0" class="graph" transform="scale(1 1) rotate(0) translate(144 364.05)">
<title>CPX Flowchart</title>
<polygon fill="white" stroke="none" points="-144,144 -144,-364.05 1268.4,-364.05 1268.4,144 -144,144"/>
<text text-anchor="middle" x="562.2" y="-9.25" font-family="Sans-Serif" font-size="15.00" fill="#2d3436">CPX Flowchart</text>
<g id="clust1" class="cluster">
<title>cluster_Master Routine</title>
<path fill="#e5f5fd" stroke="#aeb6be" d="M148.4,-35.5C148.4,-35.5 528.4,-35.5 528.4,-35.5 534.4,-35.5 540.4,-41.5 540.4,-47.5 540.4,-47.5 540.4,-200.05 540.4,-200.05 540.4,-206.05 534.4,-212.05 528.4,-212.05 528.4,-212.05 148.4,-212.05 148.4,-212.05 142.4,-212.05 136.4,-206.05 136.4,-200.05 136.4,-200.05 136.4,-47.5 136.4,-47.5 136.4,-41.5 142.4,-35.5 148.4,-35.5"/>
<text text-anchor="middle" x="183.78" y="-196.65" font-family="Sans-Serif" font-size="12.00" fill="#2d3436">Master Routine</text>
</g>
<g id="clust2" class="cluster">
<title>cluster_Child Routine</title>
<path fill="#e5f5fd" stroke="#aeb6be" d="M580.4,-35.5C580.4,-35.5 1104.4,-35.5 1104.4,-35.5 1110.4,-35.5 1116.4,-41.5 1116.4,-47.5 1116.4,-47.5 1116.4,-200.05 1116.4,-200.05 1116.4,-206.05 1110.4,-212.05 1104.4,-212.05 1104.4,-212.05 580.4,-212.05 580.4,-212.05 574.4,-212.05 568.4,-206.05 568.4,-200.05 568.4,-200.05 568.4,-47.5 568.4,-47.5 568.4,-41.5 574.4,-35.5 580.4,-35.5"/>
<text text-anchor="middle" x="612.02" y="-196.65" font-family="Sans-Serif" font-size="12.00" fill="#2d3436">Child Routine</text>
</g>
<!-- b2fb7a482d6741a4bd98fac47f77f0bb -->
<g id="node1" class="node">
<title>b2fb7a482d6741a4bd98fac47f77f0bb</title>
<image xlink:href="c:\Python312\Lib\site-packages\resources/programming/flowchart\manual-input.png" width="100.8px" height="100.8px" preserveAspectRatio="xMinYMin meet" x="0" y="-162.3"/>
<text text-anchor="middle" x="50.4" y="-47.65" font-family="Sans-Serif" font-size="13.00" fill="#2d3436">Launch with opts</text>
</g>
<!-- 09117c932b9f44b498ba8eaf0d9bf003 -->
<g id="node2" class="node">
<title>09117c932b9f44b498ba8eaf0d9bf003</title>
<image xlink:href="c:\Python312\Lib\site-packages\resources/programming/flowchart\action.png" width="100.8px" height="100.8px" preserveAspectRatio="xMinYMin meet" x="144" y="-162.3"/>
<text text-anchor="middle" x="194.4" y="-47.65" font-family="Sans-Serif" font-size="13.00" fill="#2d3436">Scheduler Module</text>
</g>
<!-- 2aefd475993e496585d4acffda4437c6 -->
<g id="node3" class="node">
<title>2aefd475993e496585d4acffda4437c6</title>
<image xlink:href="c:\Python312\Lib\site-packages\resources/programming/flowchart\action.png" width="100.8px" height="100.8px" preserveAspectRatio="xMinYMin meet" x="288" y="-162.3"/>
<text text-anchor="middle" x="338.4" y="-47.65" font-family="Sans-Serif" font-size="13.00" fill="#2d3436">Config Module</text>
</g>
<!-- fff84ca34bb94c8693fd20a0829cc47f -->
<g id="node4" class="node">
<title>fff84ca34bb94c8693fd20a0829cc47f</title>
<image xlink:href="c:\Python312\Lib\site-packages\resources/programming/flowchart\action.png" width="100.8px" height="100.8px" preserveAspectRatio="xMinYMin meet" x="432" y="-162.3"/>
<text text-anchor="middle" x="482.4" y="-47.65" font-family="Sans-Serif" font-size="13.00" fill="#2d3436">HR Module</text>
</g>
<!-- 8645e55871eb4fe9ad792b4345b79f20 -->
<g id="node5" class="node">
<title>8645e55871eb4fe9ad792b4345b79f20</title>
<image xlink:href="c:\Python312\Lib\site-packages\resources/programming/flowchart\action.png" width="100.8px" height="100.8px" preserveAspectRatio="xMinYMin meet" x="576" y="-162.3"/>
<text text-anchor="middle" x="626.4" y="-47.65" font-family="Sans-Serif" font-size="13.00" fill="#2d3436">Cache Manager</text>
</g>
<!-- eb8272faf43640a0a3bcc3b6ed2e2814 -->
<g id="node6" class="node">
<title>eb8272faf43640a0a3bcc3b6ed2e2814</title>
<image xlink:href="c:\Python312\Lib\site-packages\resources/programming/flowchart\input-output.png" width="100.8px" height="100.8px" preserveAspectRatio="xMinYMin meet" x="720" y="-162.3"/>
<text text-anchor="middle" x="770.4" y="-47.65" font-family="Sans-Serif" font-size="13.00" fill="#2d3436">SSL/TLS Server</text>
</g>
<!-- db126699127c44839dc06065d9581a70 -->
<g id="node7" class="node">
<title>db126699127c44839dc06065d9581a70</title>
<image xlink:href="c:\Python312\Lib\site-packages\resources/programming/flowchart\input-output.png" width="100.8px" height="100.8px" preserveAspectRatio="xMinYMin meet" x="864" y="-162.3"/>
<text text-anchor="middle" x="914.4" y="-47.65" font-family="Sans-Serif" font-size="13.00" fill="#2d3436">Load Balancer</text>
</g>
<!-- fa2de0b2fa764632b75138213fb60e65 -->
<g id="node8" class="node">
<title>fa2de0b2fa764632b75138213fb60e65</title>
<image xlink:href="c:\Python312\Lib\site-packages\resources/programming/flowchart\input-output.png" width="100.8px" height="100.8px" preserveAspectRatio="xMinYMin meet" x="1008" y="-162.3"/>
<text text-anchor="middle" x="1058.4" y="-47.65" font-family="Sans-Serif" font-size="13.00" fill="#2d3436">Reverse Proxy</text>
</g>
</g>
</svg>
