<?xml version="1.0" encoding="UTF-8" standalone="no"?>
<!DOCTYPE svg PUBLIC "-//W3C//DTD SVG 1.1//EN"
 "http://www.w3.org/Graphics/SVG/1.1/DTD/svg11.dtd">
<!-- Generated by graphviz version 12.2.0 (20241103.1931)
 -->
<!-- Title: CPX Flowchart Pages: 1 -->
<svg width="1412pt" height="508pt"
 viewBox="0.00 0.00 1412.40 508.05" xmlns="http://www.w3.org/2000/svg" xmlns:xlink="http://www.w3.org/1999/xlink">
<g id="graph0" class="graph" transform="scale(1 1) rotate(0) translate(144 364.05)">
<title>CPX Flowchart</title>
<polygon fill="white" stroke="none" points="-144,144 -144,-364.05 1268.4,-364.05 1268.4,144 -144,144"/>
<text text-anchor="middle" x="562.2" y="-9.25" font-family="Sans-Serif" font-size="15.00" fill="#2d3436">CPX Flowchart</text>
<g id="clust1" class="cluster">
<title>cluster_Master Routines</title>
<path fill="#e5f5fd" stroke="#aeb6be" d="M148.4,-35.5C148.4,-35.5 528.4,-35.5 528.4,-35.5 534.4,-35.5 540.4,-41.5 540.4,-47.5 540.4,-47.5 540.4,-200.05 540.4,-200.05 540.4,-206.05 534.4,-212.05 528.4,-212.05 528.4,-212.05 148.4,-212.05 148.4,-212.05 142.4,-212.05 136.4,-206.05 136.4,-200.05 136.4,-200.05 136.4,-47.5 136.4,-47.5 136.4,-41.5 142.4,-35.5 148.4,-35.5"/>
<text text-anchor="middle" x="186.4" y="-196.65" font-family="Sans-Serif" font-size="12.00" fill="#2d3436">Master Routines</text>
</g>
<g id="clust2" class="cluster">
<title>cluster_Child Routines</title>
<path fill="#e5f5fd" stroke="#aeb6be" d="M580.4,-35.5C580.4,-35.5 1104.4,-35.5 1104.4,-35.5 1110.4,-35.5 1116.4,-41.5 1116.4,-47.5 1116.4,-47.5 1116.4,-200.05 1116.4,-200.05 1116.4,-206.05 1110.4,-212.05 1104.4,-212.05 1104.4,-212.05 580.4,-212.05 580.4,-212.05 574.4,-212.05 568.4,-206.05 568.4,-200.05 568.4,-200.05 568.4,-47.5 568.4,-47.5 568.4,-41.5 574.4,-35.5 580.4,-35.5"/>
<text text-anchor="middle" x="614.65" y="-196.65" font-family="Sans-Serif" font-size="12.00" fill="#2d3436">Child Routines</text>
</g>
<!-- e4b8dd7967844314849bdf669831e58f -->
<g id="node1" class="node">
<title>e4b8dd7967844314849bdf669831e58f</title>
<image xlink:href="c:\Python312\Lib\site-packages\resources/programming/flowchart\manual-input.png" width="100.8px" height="100.8px" preserveAspectRatio="xMinYMin meet" x="0" y="-162.3"/>
<text text-anchor="middle" x="50.4" y="-47.65" font-family="Sans-Serif" font-size="13.00" fill="#2d3436">Launch with opts</text>
</g>
<!-- 1ddf4e1dba5f4562ae74de815175badf -->
<g id="node2" class="node">
<title>1ddf4e1dba5f4562ae74de815175badf</title>
<image xlink:href="c:\Python312\Lib\site-packages\resources/programming/flowchart\action.png" width="100.8px" height="100.8px" preserveAspectRatio="xMinYMin meet" x="144" y="-162.3"/>
<text text-anchor="middle" x="194.4" y="-47.65" font-family="Sans-Serif" font-size="13.00" fill="#2d3436">Scheduler Module</text>
</g>
<!-- 832bb03608ba46819d5219343b8d9fe2 -->
<g id="node3" class="node">
<title>832bb03608ba46819d5219343b8d9fe2</title>
<image xlink:href="c:\Python312\Lib\site-packages\resources/programming/flowchart\action.png" width="100.8px" height="100.8px" preserveAspectRatio="xMinYMin meet" x="288" y="-162.3"/>
<text text-anchor="middle" x="338.4" y="-47.65" font-family="Sans-Serif" font-size="13.00" fill="#2d3436">Config Module</text>
</g>
<!-- 1ab8671a018b44949637da96949e4802 -->
<g id="node4" class="node">
<title>1ab8671a018b44949637da96949e4802</title>
<image xlink:href="c:\Python312\Lib\site-packages\resources/programming/flowchart\action.png" width="100.8px" height="100.8px" preserveAspectRatio="xMinYMin meet" x="432" y="-162.3"/>
<text text-anchor="middle" x="482.4" y="-47.65" font-family="Sans-Serif" font-size="13.00" fill="#2d3436">HR Module</text>
</g>
<!-- 91c8ee94d5a54343a820c1aa8050aa0c -->
<g id="node5" class="node">
<title>91c8ee94d5a54343a820c1aa8050aa0c</title>
<image xlink:href="c:\Python312\Lib\site-packages\resources/programming/flowchart\action.png" width="100.8px" height="100.8px" preserveAspectRatio="xMinYMin meet" x="576" y="-162.3"/>
<text text-anchor="middle" x="626.4" y="-47.65" font-family="Sans-Serif" font-size="13.00" fill="#2d3436">Cache Manager</text>
</g>
<!-- 2004c217a7d94b48b5018c73f1469a14 -->
<g id="node6" class="node">
<title>2004c217a7d94b48b5018c73f1469a14</title>
<image xlink:href="c:\Python312\Lib\site-packages\resources/programming/flowchart\input-output.png" width="100.8px" height="100.8px" preserveAspectRatio="xMinYMin meet" x="720" y="-162.3"/>
<text text-anchor="middle" x="770.4" y="-47.65" font-family="Sans-Serif" font-size="13.00" fill="#2d3436">SSL/TLS Server</text>
</g>
<!-- 46fbcfb0a9f64d45b86ff90a5f7172e3 -->
<g id="node7" class="node">
<title>46fbcfb0a9f64d45b86ff90a5f7172e3</title>
<image xlink:href="c:\Python312\Lib\site-packages\resources/programming/flowchart\input-output.png" width="100.8px" height="100.8px" preserveAspectRatio="xMinYMin meet" x="864" y="-162.3"/>
<text text-anchor="middle" x="914.4" y="-47.65" font-family="Sans-Serif" font-size="13.00" fill="#2d3436">Load Balancer</text>
</g>
<!-- e06d487c7fe84b439efbb1936ea7d1d9 -->
<g id="node8" class="node">
<title>e06d487c7fe84b439efbb1936ea7d1d9</title>
<image xlink:href="c:\Python312\Lib\site-packages\resources/programming/flowchart\input-output.png" width="100.8px" height="100.8px" preserveAspectRatio="xMinYMin meet" x="1008" y="-162.3"/>
<text text-anchor="middle" x="1058.4" y="-47.65" font-family="Sans-Serif" font-size="13.00" fill="#2d3436">Reverse Proxy</text>
</g>
</g>
</svg>
